{"title":"PBS Nova - Submarines, Secrets and Spies (1999) VHSrip.avi","uid":6496047,"size":931436544,"categoryP":"video","categoryS":"tv_shows","magnet":"?xt=urn:btih:ee3ef4e4a3186506677c59d1b53d745411753072&amp;dn=PBS+Nova+-+Submarines%2C+Secrets+and+Spies+%281999%29+VHSrip.avi&amp;tr=udp%3A%2F%2Ftracker.openbittorrent.com%3A80&amp;tr=udp%3A%2F%2Fopen.demonii.com%3A1337&amp;tr=udp%3A%2F%2Ftracker.coppersurfer.tk%3A6969&amp;tr=udp%3A%2F%2Fexodus.desync.com%3A6969","seeders":2,"leechers":0,"uploader":"V100","files":1,"time":1309077718,"description":"\n----VHS-Rip---- 55 minutes, color, original air date: January 19, 1999.\n\nNova explores how nuclear submarines were used during the cold war. The film discusses the loss of the Thresher and Scorpion, the recovery effort of the K-129 using the Glomar Explorer, and the tapping the USSR's underwater communication cables.\n\nMay be slow if poorly seeded. Please help folks like you by seeding.\n\nVideo: Xvid 528x400 29.97fps 1995kbps \nAudio: Dolby AC3 48000Hz stereo 256kbps\n\n\nFormat                           : AVI\nFormat/Info                      : Audio Video Interleave\nFile size                        : 888 MiB\nDuration                         : 54mn 57s\nOverall bit rate                 : 2 260 Kbps\nWriting application              : VirtualDubMod 1.5.4.1 (build 2178/release)\nWriting library                  : VirtualDubMod build 2178/release\n\nVideo\nID                               : 0\nFormat                           : MPEG-4 Visual\nFormat profile                   : Advanced Simple@L5\nFormat settings, BVOP            : Yes\nFormat settings, QPel            : No\nFormat settings, GMC             : No warppoints\nFormat settings, Matrix          : Custom\nCodec ID                         : XVID\nCodec ID/Hint                    : XviD\nDuration                         : 54mn 57s\nBit rate                         : 1 996 Kbps\nWidth                            : 528 pixels\nHeight                           : 400 pixels\nDisplay aspect ratio             : 4:3\nFrame rate                       : 29.970 fps\nColor space                      : YUV\nChroma subsampling               : 4:2:0\nBit depth                        : 8 bits\nScan type                        : Progressive\nBits/(Pixel*Frame)               : 0.315\nStream size                      : 785 MiB (88%)\nWriting library                  : XviD 57\n\nAudio\nID                               : 1\nFormat                           : AC-3\nFormat/Info                      : Audio Coding 3\nMode extension                   : CM (complete main)\nCodec ID                         : 2000\nDuration                         : 54mn 57s\nBit rate mode                    : Constant\nBit rate                         : 256 Kbps\nChannel(s)                       : 2 channels\nChannel positions                : Front: L R\nSampling rate                    : 48.0 KHz\nBit depth                        : 16 bits\nStream size                      : 101 MiB (11%)\nAlignment                        : Aligned on interleaves\nInterleave, duration             : 96 ms (2.88 video frames)\nInterleave, preload duration     : 96 ms\n","torrent":{"xt":"urn:btih:ee3ef4e4a3186506677c59d1b53d745411753072","amp;dn":"PBS+Nova+-+Submarines%2C+Secrets+and+Spies+%281999%29+VHSrip.avi","amp;tr":["udp%3A%2F%2Ftracker.openbittorrent.com%3A80","udp%3A%2F%2Fopen.demonii.com%3A1337","udp%3A%2F%2Ftracker.coppersurfer.tk%3A6969","udp%3A%2F%2Fexodus.desync.com%3A6969"],"infoHash":"ee3ef4e4a3186506677c59d1b53d745411753072","infoHashBuffer":{"type":"Buffer","data":[238,62,244,228,163,24,101,6,103,124,89,209,181,61,116,84,17,117,48,114]},"announce":[],"urlList":[]}}